<svg width="110" height="38" viewBox="0 0 110 38" fill="none" xmlns="http://www.w3.org/2000/svg">
<path d="M0 11.763H14.0834L12.2275 15.6967C10.5535 15.2877 9.4132 15.0351 8.80668 14.9389C7.78772 14.7705 6.59894 14.6862 5.24034 14.6862V22.9146H12.7005L10.6262 26.6318C9.43746 26.2709 8.55194 26.0424 7.96968 25.9461C7.41168 25.8499 6.5019 25.7416 5.24034 25.6213V34.2828C5.24034 34.9083 5.30099 35.4497 5.42229 35.9068C5.5436 36.3639 5.79834 36.9895 6.18651 37.7835H0.0363913C0.424564 37.0857 0.667173 36.5324 0.764216 36.1233C0.861259 35.6903 0.909781 35.0647 0.909781 34.2467V15.1554C0.909781 14.5058 0.849129 13.9524 0.727825 13.4953C0.60652 13.0382 0.363912 12.4607 0 11.763Z" fill="white"/>
<path d="M15.5512 37.7835C16.3518 36.8211 16.9341 36.0391 17.298 35.4376C17.6862 34.8362 18.1229 33.958 18.6081 32.8031L26.3958 14.3614C26.5656 13.9524 26.6991 13.5675 26.7961 13.2066C26.9174 12.8216 27.0387 12.3404 27.16 11.763H30.7992C30.9447 12.4367 31.066 12.966 31.1631 13.3509C31.2844 13.7359 31.4057 14.0727 31.527 14.3614L38.4777 32.5505C38.8416 33.5369 39.2055 34.367 39.5694 35.0407C39.8606 35.594 40.4428 36.5083 41.3162 37.7835H34.9478L34.9842 36.8451C34.9842 35.9309 34.8143 35.0527 34.4747 34.2106L32.6915 29.2664H24.3215L22.502 33.8858C22.0653 34.9444 21.8469 35.8707 21.8469 36.6647L21.9561 37.7835H15.5512ZM28.6157 16.7794L25.1221 26.2349H31.7817L28.6157 16.7794Z" fill="white"/>
<path d="M66.3858 12.8457L66.4949 17.429C65.1849 16.0817 64.0203 15.1554 63.0014 14.6502C62.0067 14.1449 60.8058 13.8923 59.3986 13.8923C56.7542 13.8923 54.5707 14.9389 52.8482 17.0321C51.15 19.1012 50.3008 21.7598 50.3008 25.0078C50.3008 27.9912 51.1621 30.4693 52.8846 32.4422C54.6314 34.3911 56.8149 35.3655 59.435 35.3655C60.8907 35.3655 62.1159 35.1128 63.1105 34.6076C64.1052 34.1023 65.294 33.14 66.6769 31.7204L65.9855 36.3038C64.4328 37.0015 63.1833 37.4587 62.2372 37.6752C61.291 37.8917 60.1265 38 58.7436 38C54.8861 38 51.7322 36.785 49.2819 34.355C46.8315 31.9249 45.6064 28.7972 45.6064 24.9717C45.6064 21.1462 46.9286 17.9463 49.573 15.3719C52.2174 12.7976 55.5048 11.5104 59.435 11.5104C60.7209 11.5104 61.7883 11.5946 62.6375 11.763C63.5109 11.9314 64.7603 12.2923 66.3858 12.8457Z" fill="white"/>
<path d="M74.2778 37.7835C74.6417 37.0617 74.8843 36.4602 75.0056 35.979C75.1512 35.4737 75.224 34.8963 75.224 34.2467V15.1915C75.224 14.5178 75.1633 13.9645 75.042 13.5314C74.945 13.0983 74.7024 12.5089 74.3142 11.763H88.434L86.578 15.6967C85.0981 15.3118 84.2005 15.0832 83.8851 15.0111C82.7691 14.7705 81.3256 14.6502 79.5545 14.6502V22.8785H87.0511L84.9768 26.6679C83.8123 26.307 82.9268 26.0664 82.3202 25.9461C81.738 25.8258 80.8161 25.7055 79.5545 25.5852V34.9324C82.1747 34.9324 84.249 34.752 85.7774 34.3911C85.923 34.3429 87.2331 33.958 89.7077 33.2362L87.4878 37.7835H74.2778Z" fill="white"/>
<path d="M109.163 12.6292L109.272 17.1764C108.229 16.214 107.356 15.5524 106.652 15.1915C105.948 14.8306 105.184 14.6502 104.359 14.6502C103.268 14.6502 102.358 15.0111 101.63 15.7328C100.902 16.4546 100.538 17.3569 100.538 18.4395C100.538 19.2816 100.732 19.9794 101.121 20.5327C101.412 20.9899 101.8 21.4229 102.285 21.8319C102.795 22.2169 103.656 22.7823 104.869 23.5282L107.234 25.2244C109.078 26.716 110 28.5566 110 30.746C110 32.334 109.515 33.7535 108.544 35.0046C107.744 36.0632 106.798 36.8211 105.706 37.2782C104.638 37.7353 103.268 37.9639 101.594 37.9639C100.453 37.9639 99.5678 37.9038 98.9371 37.7835C98.3305 37.6632 97.4935 37.3624 96.4261 36.8812V32.0813C97.5178 33.2121 98.4276 33.982 99.1554 34.3911C99.9075 34.776 100.757 34.9685 101.703 34.9685C102.819 34.9685 103.716 34.6557 104.396 34.0302C105.075 33.4046 105.415 32.5746 105.415 31.54C105.415 30.6498 105.16 29.8679 104.65 29.1942C104.141 28.4965 103.231 27.7145 101.921 26.8484C101.484 26.5837 101.036 26.295 100.575 25.9822C100.356 25.8379 99.9924 25.5852 99.4829 25.2244C97.2752 23.6364 96.1713 21.5914 96.1713 19.0892C96.1713 16.8997 96.9598 15.1073 98.5368 13.7118C100.138 12.2923 102.164 11.5826 104.614 11.5826C105.536 11.5826 106.264 11.6427 106.798 11.763C107.331 11.8833 108.12 12.172 109.163 12.6292Z" fill="white"/>
<path d="M26.5522 2.45408C26.5522 1.75635 26.7827 1.17892 27.2437 0.721788C27.7289 0.240596 28.3233 0 29.0268 0C29.7061 0 30.2884 0.228566 30.7736 0.685698C31.2588 1.14283 31.5014 1.72026 31.5014 2.41799C31.5014 3.09166 31.2588 3.66909 30.7736 4.15028C30.2884 4.63147 29.7061 4.87207 29.0268 4.87207C28.3475 4.87207 27.7653 4.63147 27.28 4.15028C26.7948 3.66909 26.5522 3.10369 26.5522 2.45408Z" fill="white"/>
</svg>
